<svg xmlns="http://www.w3.org/2000/svg" viewBox="0 0 618.9 134.18"><defs><style>.a{fill:#fff;}</style></defs><title>Artboard 2</title><path d="M270.84,53.06c-.35,1.62-1.83,2.75-2.12,4.41-.35.74-.49,1.59-.81,2.33s-.11,1.34-.42,2c.14,1.23-.25,2.72-.14,4a62.88,62.88,0,0,0,0,8.15c-.11,2.5.25,5.12,0,7.58,0,3.74.21,7.51,0,11.25.25,3.14,0,6.07.18,9.17,1.06,1,2.5,1.59,3.49,2.65,1.38,1.06,2.36-.85,3.49-1.34a1.52,1.52,0,0,1,1.38.56c-.07.35.28.67,0,1-.71.32-1,1.27-1.76,1.41s-1.2,1.23-2.08,1.38c-.21.25-.6.21-.67.6-1.34,1.23-2.93,1.73-4.2,3.07-.64,0-.85.81-1.59.42-2-1.91-4.44-3-6.31-5.22l-1.9-1.69.25-.39c1-1,3.14-1.31,2.82-3.1,0-2.15-.21-4.27,0-6.42,0-3.39-.18-7.2-.11-10.62-.25-7.69,0-15.42-.25-23a41.64,41.64,0,0,1-.46-5.19c.18-.25.32-.53.63-.53,1.55.14,1.31,1.83,2.15,2.72-.11.42.42.42.63.64a3.25,3.25,0,0,0,1.48-1.59c1.38-1.31,2.43-3,3.85-4.09.18-.56.88-.6,1.13-1A.82.82,0,1,1,270.84,53.06Z"/><path d="M404.52,81.85c-.84-.6-1.59-1.43-2.44-1.94-1.34-.88-2.43-2.12-3.67-3.07-1-.28-1.76-1.91-2.82-1.45L387.33,81c-.46.27-.91.57-1.36.88a25.47,25.47,0,0,1-4.25,2.79c-.46-.42-.11-1-.28-1.48q0-.64,0-1.31c0-2.34,0-4.79-.06-7,.32-4.83-.49-9.63.71-14.39a12.43,12.43,0,0,1,2.15-5.5c.14-1,1.45-1.66.71-2.79-.35-.53-.92,0-1.38,0A22.19,22.19,0,0,1,382,53.76c-.81.49-1,1.34-1.76,1.76-.46.88-1.41,1.38-1.87,2.26.14.42-.6.6-1,.74-.21-.11-.49-.32-.53-.56a12.49,12.49,0,0,0-2.15-3.39c-.28-.25-.71,0-1,.07-.63,1.76.6,3.35.53,5.19.42,6.28.14,13.05.21,19.47,0,0,0,1,0,2.54,0,4.61-.09,13.86-.09,13.86l.07,6.74a3.91,3.91,0,0,1-2.19,1.66c-.35.32-1,.46-1,1,1.31,1.48,2.82,2.19,4.09,3.6.32.35.74,1,1.23,1.06a7.5,7.5,0,0,0,2,1.83c.88.67,1.48-.42,2.19-.78s1-1,1.69-1.13c.81-.71,1.76-1.13,2.54-1.94.39-.39,1-.46,1.2-1-.14-.25-.39-.18-.53-.35-.92-.56-1.62-1.55-2.54-2.08a3.87,3.87,0,0,0-1.55-1.27l-.18-2.36c0-3.92.07-7.76.11-11.61l2-1.76c2.65-1.48,5-3.56,7.66-5.15l1.41.92c.92.67,2.4,1,2.36,2.43V99.13a11.68,11.68,0,0,1,.07,3.14c-.21.63-1,1-1.48,1.41-.42,0-.56.39-1,.46-.21.18-.46.28-.46.6,1.27,1.23,2.54,2.4,3.7,3.63,1.06.85,2.33,1.94,3.39,2.82.49.32,1,.07,1.48-.11,1.62-1.48,3.56-2.61,5.36-4,1-1,2.61-1.16,3.32-2.54a1.36,1.36,0,0,0-.39-1.45c-.92-.35-1.2.71-2,.85-.6.39-1.34,1.2-2,.71-.92-.92-2.29-1.41-3.07-2.43-.14-3.67.07-7.69-.18-11.54.39-1.69.18-3.63.42-5.4.49-1.16,1.76-1.69,2.72-2.47a1.18,1.18,0,0,0-.25-.88Z"/><path d="M358.4,58.77c.35,4.8-.18,9.31.25,14.08a4.39,4.39,0,0,0,.25,2.54,19.14,19.14,0,0,0,6-.35c.42-.39.78-.92,1.41-1,.25.11.35,0,.67.07.53.53,0,1.23,0,1.87a2.54,2.54,0,0,0-.6,1.59c-.71.81-.71,2.36-2.08,2.33-1.13.21-2.43-.18-3.56.07-.56-.07-1.06-.28-1.59,0-.85,1.2-.32,2.58-.46,4,.18,5.79-.14,11.43,0,17.15-.25.53,0,1.09,0,1.66.92,1.2,2.36,1.38,3.39,2.43,1,.21,1.8-.74,2.61-1.13.28-.46.88-.42,1.31-.67a1.1,1.1,0,0,1,.56.49c.35,1.41-1.16,1.8-1.87,2.61-1.94,1.13-3.63,2.75-5.43,3.88-.85.35-1.16,1.48-2.26,1.31-1.06-.67-1.8-1.8-2.86-2.47-1.2-1.76-3.35-2.4-4.8-4-.18-.21-.56-.28-.53-.6.85-.85,2-.92,2.61-1.94l.35-1.8c-.07-6.46.21-13.9-.25-20.53-.67-1-2.36-.49-3.42-.56-1.45-.46-2,1.2-3.17,1.45-.25-.18-.46-.28-.53-.56a10.07,10.07,0,0,1,.74-3c.56-.85.78-2,2-2.26s2.89,0,4.3-.11l.35-.53c0-3.92-.11-7.8.14-11.71,0-1.06,1.38-1.16,1.87-2.08,1.27-.42,2.22-1.69,3.42-2.12C357.41,58.39,358.33,58.17,358.4,58.77Z"/><path d="M230.24,82.41c-1.32-4.66-6.06-8.2-10.46-9.6-2-1-4.27-1.2-6.28-2.08-1,0-2-.46-3.07-.53-.6-.25-1.31-.25-1.91-.49a18.08,18.08,0,0,1-2.29-.56c-1.31,0-2.54-.67-3.85-.85-2.5-.39-4.8-1.31-7.34-1.69-.28-.35-.74-.28-1.13-.39a11.14,11.14,0,0,0-2.72-.88c-.78-.46-1.76-.46-2.47-1.06A11.08,11.08,0,0,1,184,61a5,5,0,0,1-.64-4.8c1.66-3.6,5.22-5.29,8.89-5.75,6.49-.28,11.43,4.13,15.49,8.89a1.68,1.68,0,0,0,1.41,1c4.9-3.28,9.6-6.6,14.39-10.13a3.11,3.11,0,0,0,1.34-1,1.22,1.22,0,0,0-.35-1.27c0-.21-.39,0-.35-.35-.39,0-.85-.25-1.23,0-2.36,1.55-4.69,3.1-7.09,4.52a34.36,34.36,0,0,0-7.16-3.67c-.35-.18-.78-.11-1.06-.35-2.58-.53-4.9-1.27-7.66-1.27-1.66.11-3.32-.25-5,.14a23,23,0,0,0-6.14,1.52c-1,.21-1.62.78-2.54,1-1.23.92-2.79,1.41-3.74,2.79-.71.32-1.09,1.06-1.69,1.66a14.48,14.48,0,0,0-2.79,6.24,9.51,9.51,0,0,0,4.8,9.6c.53.49,1.27.46,1.83,1,1.09.28,2,1.09,3.14,1.38,3.46,1.27,7.09,2.08,10.69,3.07.49.21,1.13,0,1.55.39,3.49.74,7,1.66,10.51,2.22a11.29,11.29,0,0,0,2.68.81c4.84,1.75,7.61,3.15,8.51,3.81l.28.21a8.87,8.87,0,0,1,3.63,5.22,10.09,10.09,0,0,1-3.42,9.45c-2.68,2.4-5.57,4.69-8.43,6.84a1.32,1.32,0,0,1-1.52,0A71.41,71.41,0,0,0,203,98.78c-1.34-.14-2.29-1.16-3.67-1.2-1.52-.74-3.39-.56-5-1-.49-.14-1,0-1.41-.18-2.65-.11-5.29-.35-7.76.35a32.82,32.82,0,0,0-8.82,2.72c-2.26,1.06-4.3,2.68-6.49,3.92a27.68,27.68,0,0,0-5.43,5.5c-1,2-2.47,4.41-1.2,6.67a3.85,3.85,0,0,0,3.39,2.43c2,.07,3.77-1.52,4.73-3.21.18-.78.74-1.8-.07-2.36-.42-.42-1,0-1.34.25.14.39-.25.42-.42.64a3.78,3.78,0,0,1-.88,1.66,2.36,2.36,0,0,1-2.15.85,2.63,2.63,0,0,1-1.16-.88,1.59,1.59,0,0,1-.18-1.31c0-1.2.81-2.08,1.23-3.07a34.69,34.69,0,0,1,4.55-4.27c.78-.21,1.27-1,2.08-1.13a23,23,0,0,1,3.25-1.59c1.06-.14,1.94-.74,3-.85,1.73-.28,3.63-.42,5.36-.53a29.54,29.54,0,0,1,10.58,3c4,1.48,7.37,4.34,11.15,6.31.42.14.71.6,1.16.6a5.5,5.5,0,0,0,2.33-1.59,61.44,61.44,0,0,0,5.15-4,.84.84,0,0,0,.64-.35c2.15-1.8,4.34-3.1,6.21-5.15a1.28,1.28,0,0,0,1-.78,35.57,35.57,0,0,0,3.35-2.82c.6-.49,1.06-1.23,1.66-1.66a14.06,14.06,0,0,0,2.61-12.45Q230.36,82.83,230.24,82.41Z"/><path d="M175.37,64.17c.46,1.16-.25,2.54.18,3.85-.21.88.56,1.48.71,2.29a16.36,16.36,0,0,0,4,3.6c.53.18.88.81,1.52.74a9.29,9.29,0,0,0,2.58,1.09c.81,0,1.41.64,2.22.67,2.19,1.06,4.69,1.31,7,2.08,4,.92,7.94,1.73,12,2.47,2,.46,4,1,6,1.59.6-.25.78.46,1.31.32.74.28,1.48.56,2.19.88,1,.07,1.76.74,2.68,1a11.3,11.3,0,0,1,2.54,1.83c1.34,1.55,1.48,3.46,1.66,5.4a11.86,11.86,0,0,1-1.48,4.09c-1,1-1.8,2.61-3.32,2.29a1.56,1.56,0,0,1-.28-1.41,3.53,3.53,0,0,0,.46-3.14c-.81-1.76-2.79-2.19-4.3-2.89-.46.18-.78-.32-1.2-.35-.81.07-1.27-.67-2.12-.49a4.64,4.64,0,0,0-1.55-.46c-2.93-.74-5.75-1.66-8.75-2.12-7.48-1.76-15.24-2.86-21.94-6.53-2.54-1.52-4.8-3.85-5.22-6.74-.46-.42-.07-1.34-.35-1.91a15.94,15.94,0,0,1,1.48-7.62,3.6,3.6,0,0,1,1.06-1.13A1.11,1.11,0,0,1,175.37,64.17Z"/><path d="M308,93.24c0-.37,0-.74,0-1.09-.14-1,.64-2.19-.28-2.89-.42.07-.74-.39-1.13-.07-2.65-.25-5.26.18-7.94-.25-1.23.28-2.58-.28-3.85.14-.74.6-1.06,1.83-2.19,1.87-1.83-.14-3.74.07-5.5.07-.32.35-.71-.14-1.13.18-.35,0-.49-.39-.56-.64a65.82,65.82,0,0,1,0-7c.25-.53-.21-1.13.18-1.59a24.35,24.35,0,0,0,2.36-1.13l1.31.81c3.14,2.36,7.94,1.16,11.36.14.88-.11,1.55-.74,2.43-.85,1.66-1,3.56-1.45,5.08-2.72.46-.6.35-1.2.53-1.91,0-.39-.32-.49-.56-.78-1.41.49-2.5,1.76-4,1.83-.64.49-1.45.21-2.15.56a13.74,13.74,0,0,1-5-1.48c-.81,0-1.2-1-1.94-1.13a1.42,1.42,0,0,0-1.48-.78c-1.23.88-2.4,1.52-3.67,2.29a3.06,3.06,0,0,0-1.23.71c-.53.07-.88.6-1.41.67-.46.46-1.16.25-1.62.71A23.69,23.69,0,0,1,281,80.08c-1.27.6-3.07-.28-4,.78-.67,1.73,1.8,1.8,2,3.35A54.81,54.81,0,0,1,279,91a6.51,6.51,0,0,1-.09,2.22,7.82,7.82,0,0,0-.15,2.47c.6.21,1.41,0,2,.18,3.85-.21,7.83-.11,11.71-.32a4.7,4.7,0,0,0,1.69-1.52c2.22-.28,4.23,0,6.53-.07l.53.28a94.56,94.56,0,0,1,.18,10l-.25.35-2.36.78a16,16,0,0,0-6.39-2.54,23.88,23.88,0,0,0-6.74.21,13.54,13.54,0,0,0-8.75,5.57c-.25.71-.64,1.66.11,2.26,1.06.53,1.83-.74,2.61-1.27a1.3,1.3,0,0,0,1-.39,12.51,12.51,0,0,1,7.87-.14c.85.53,1.76.74,2.61,1.2l1.23,1c.35.21.81.32,1,.6.81.07,1.31-.78,1.83-1.31,3.7-2,7.44-4,11.71-4.66.85-.11,1.83-.28,2.72-.32.28-.14.74-.21.78-.64s.25-1.31-.42-1.48c-.42.25-.49-.42-.88-.28-.46-.18-1.13-.42-1.13-1a49.28,49.28,0,0,1,.07-6.46C308,95,308,94.1,308,93.24Z"/><path d="M243.74,58.91c1.94,1.66,3.74,3.49,5.64,5.12l.11.32c-1.45,1.62-3.42,3.1-4.87,4.8a2.07,2.07,0,0,1-1.27.46c-1.62-1.09-2.82-3.07-4.59-3.92-.07-.74-1.52-1.09-.81-2,1.34-1.13,2.61-2.29,4-3.49A2.94,2.94,0,0,1,243.74,58.91Z"/><path d="M244.69,76.31c1.87,1.34,3.56,3.07,5.26,4.55,0,.28.46.56.14.88-.78.39-1.2,1.23-2.08,1.41-.25.56-.88.56-1.06,1.2-.56,3.42.07,7.06-.32,10.65.18.39,0,1,0,1.45.21,2.43-.92,5.26,1.66,6.77,1.09.67,2,2.61,3.46,1.52.6-.39,1-1,1.76-.81a1.19,1.19,0,0,1,.46,1.31c-.46,1.23-1.73,1.27-2.47,2.19a11.16,11.16,0,0,0-1.83,1.13,40,40,0,0,1-4.2,3.07c-.74.39-1.09-.53-1.66-.71-1.48-1.76-3.56-3.18-4.55-5.33.67-5.12.14-10.44.46-15.56-.07-2.29.21-4.23-.46-6.35-1.2-1-2.08-2.08-3.25-3-.25-.85,1-.85,1.34-1.48a45.16,45.16,0,0,1,4-3,2.3,2.3,0,0,1,2.36-.85Z"/><path d="M336.7,76.59c.85,1,1.16,2.19,2.19,3,.14.88,1.41,1.23,1.41,2.22.49.14.6.6.78,1,.56.49.71,1.06,1.38,1.48.25.81,1.41,1.45,1.06,2.47-1,1.38-2.75,1.59-4,2.68-2.22,1.34-4.66,2.15-6.81,3.6-.64.21-.92.6-1.55.78a23.39,23.39,0,0,1-2.65,1.38c-.25.46-.74.28-1.06.53-1,1.06-2.89.67-3.14,2.36.25,1.31-.6,2.79.46,3.85.56.28,1.38.07,1.83.64a12.25,12.25,0,0,1,2.79.88c.53.64,1.48.46,1.94,1.09.28,0,.32.18.53.28,1.66-.39,2.93-1.59,4.52-2.12,2-1.41,4.3-2.22,6.39-3.46a3.35,3.35,0,0,1,1.16,2.08c-.35,1.06-1.66,1-2.36,1.76a6.35,6.35,0,0,0-1.48.85c-1.48.71-2.89,1.62-4.37,2.43-2.22,1-4.2,2.68-6.31,3.77-.6.49-1.16.67-1.76,1.16-1.83-.07-2.79-1.87-4.45-2.29a18.21,18.21,0,0,0-3.74-2.19c-.78-.85-1.94-1-2.82-1.66-.88-.07-1.41-1-2.15-1.31.07-.42.53-.6.85-.81.88-.74,2.22-1.31,1.76-2.75.32-.88-.11-1.73-.07-2.65.18-4.37-.07-9.07,0-13.55a12.23,12.23,0,0,1-.28-3.6c0-.42-.21-.88-.07-1.2.56-.32,1.31.14,1.8-.18a4.79,4.79,0,0,0,2.72-.28c.85,0,1.73-.39,2.54-.42,1.91-.67,3.88-1.23,5.75-2.08.85-.63,2-.81,2.89-1.48l1.76-1.13C335.5,74.26,335.65,75.57,336.7,76.59Zm-7.23,2.47c-1.62,1-3.56,1.38-5.19,2.26l-.07,4.09c.11,2.61-.18,5.75,0,8.4a3.58,3.58,0,0,0,1.94-.85,91.79,91.79,0,0,0,9.6-5v-.42c-.78-.88-1.34-1.83-2.19-2.79-.11-.28-.11-.67-.46-.81-.32-1-1.48-1.52-1.8-2.54C330.57,80.65,330.32,79.62,329.47,79.06Z"/><path d="M504.21,59.83c.11,5.15,0,9.88.11,14.85.14.18.14.46.42.53.88-.21,1.62.21,2.47-.11.49.42.92-.07,1.48.18,1.27.28,2-.81,3-1.48a1.83,1.83,0,0,1,1,.11c.46,1.38-.49,2.58-.81,3.81a3.74,3.74,0,0,1-1.59,1.87c-1.73,0-3.18-.18-4.8-.11-1.76.42-.6,2.75-1,3.85-.11,3.7,0,7,0,10.55.39,2.75-.35,5.64.21,8.26,1.23.92,2.47,2,3.56,3,1.23-.07,2-1.38,3.07-1.83a1.09,1.09,0,0,1,1,.35c.28,1.09-.53,1.55-1.13,2.15-.53.07-.85.71-1.38.88a36.39,36.39,0,0,0-3.42,2.61c-1,.46-1.66,1.45-2.61,2h-1c-1.23-1.41-2.86-2.5-4.16-3.88a13.1,13.1,0,0,1-2.19-1.73c-.49-.49-1.13-.63-1.59-1.23-.18-1.38,1.62-1.62,2.19-2.68.74-.28.56-1,.6-1.59.25-6.28,0-12.38,0-18.95-.18-.56,0-1.41-.71-1.66-1.13-.14-2.29.07-3.46-.18a2.34,2.34,0,0,1-1,.32c-.39.46-.71,1.06-1.31,1.23a1.22,1.22,0,0,1-1.2-.88c.11-1.16,1-2,1.27-3.07.39-.46.49-1.23,1.09-1.38,1-.74,2.51-.6,3.67-.53l1.45.07a19,19,0,0,0,.21-5.5c.25-2.47-.21-4.8.18-7.16a27,27,0,0,1,6-4.37C504.46,58.49,504,59.23,504.21,59.83Z"/><path d="M486.08,82.71a13.86,13.86,0,0,0-1.83-3.86c-3.07-3.77-7.16-5.75-11.47-6.95a19.77,19.77,0,0,1-3.49-1c-1.31-.18-2.65-.6-4-.78-.88,0-1.62-.6-2.61-.53-.39,0-.71-.42-1.13-.25-3.1-.92-6.24-1.23-9.35-2.22-.81,0-1.55-.42-2.29-.49-.71-.71-1.76-.53-2.65-.81-.85-.46-1.87-.49-2.61-1.13a9,9,0,0,1-5.75-5c-.53-2.82,1.06-5.33,3.39-6.81,3.07-2.54,8.26-2.5,11.75-1,3.56,1.31,6.39,4.48,9.07,7.23.35.67.92,1.41,1.76,1.34,5-3.35,9.67-6.91,14.64-10.41.46-.42,1.31-.78,1-1.66a1.71,1.71,0,0,0-1.76-.92c-2.47,1.48-4.83,3.14-7.23,4.73A14.59,14.59,0,0,0,469,50.84a14.53,14.53,0,0,0-3.49-1.69,25.55,25.55,0,0,0-2.43-.88,48.11,48.11,0,0,0-4.9-1,12.25,12.25,0,0,0-2.54-.14,8.69,8.69,0,0,0-2.54,0c-1-.39-1.59.35-2.5.11-.92.28-2,.14-2.82.6a11.6,11.6,0,0,0-3.21,1,20.92,20.92,0,0,0-2.72,1.13,11.67,11.67,0,0,0-3.56,2.72c-.88.46-1.27,1.38-2,2v.25c-2.22,3.1-3.39,7.23-1.66,10.94a10.89,10.89,0,0,0,1.83,2.5c1.8,2.15,4.41,2.65,6.6,4,1.16,0,1.91.92,3.1.81.25.07.39.35.71.25.64.42,1.52.35,2.19.78.81-.21,1.23.6,2.08.42,1.13.39,2.36.64,3.53.92.35.25.74-.21,1,.18a36,36,0,0,0,5.54,1.2c1.62.53,3.18.63,4.8,1.06.92.14,1.76.81,2.86.71,1.2.46,2.43.78,3.6,1.31a16.52,16.52,0,0,1,5.43,2.7,17.13,17.13,0,0,1,1.91,1.68c.18.49.74.6.78,1.13,1.8,2.36,1.38,5.93.35,8.54-2.61,4.37-7.27,7.2-11.15,10.41-.67.53-1.34-.25-1.87-.49s-1-.71-1.55-.92c-2.19-1.69-4.73-2.61-7.09-3.92a26.19,26.19,0,0,0-7.16-1.9,32.43,32.43,0,0,0-25.9,6.63l-.39.11c-3.39,2.72-6.7,6.07-7.13,10.3a4.42,4.42,0,0,0,2.47,4,4.27,4.27,0,0,0,3.42,0c1.69-1,3.28-2.58,3.25-4.62,0-.63-.74-.74-1.23-.85l-.71.6.14.18-.56.42c0,1.09-1.09,1.83-1.94,2.43-.56-.11-1.23.25-1.73-.32a1.76,1.76,0,0,1-.56-1.83c-.14-1.13.88-2,1.16-3,.35-.46.85-.88,1.2-1.27a17,17,0,0,1,4.13-3.46,22.81,22.81,0,0,1,7.06-3.21c2-.11,3.81-.74,5.86-.6a27.63,27.63,0,0,1,10.94,3c3.92,1.34,7.23,4.09,10.9,6,.6.18,1.23,1,1.87.35,2-1.8,4.41-3.42,6.53-5.15.11-.21.21-.46.53-.35.85-.78,1.87-1.31,2.61-2.12,1-.88,2-1.76,3.1-2.58.39-.32.49-.81,1-.88A48.72,48.72,0,0,0,483.5,96c.53-.21.56-1,1.09-1.31A14.34,14.34,0,0,0,486.08,82.71Z"/><path d="M431.18,64.7c.49,1.09-.25,2.5.18,3.67-.21,1,.56,1.52.71,2.36,1,.81,1.45,2.12,2.61,2.54.11.46.67.32,1,.64.28.67,1.13.42,1.41,1.09.78-.07,1.27.53,1.94.63.35.46,1,.11,1.31.53.81,0,1.31.6,2.08.6,1.52.6,3.1,1,4.69,1.48,2,.21,3.63,1,5.68,1.16.56.39,1.41.25,2,.6a14.67,14.67,0,0,1,3.46.71,42.7,42.7,0,0,1,5.93,1.09c.18.25.35,0,.6.18a20.93,20.93,0,0,1,2.54.74c.56-.18.81.39,1.38.25.63.25,1.16.74,1.94.71.21.42.56,0,.88.25,1.09.6,2.26,1.09,3.39,1.66a7.76,7.76,0,0,1,3,6.46,9.38,9.38,0,0,1-1.41,3.85A6.23,6.23,0,0,1,475,97.76a3.46,3.46,0,0,1-1.66,1c-.39-.07-.46-.49-.67-.78-.35-.71.42-1.09.49-1.69a3,3,0,0,0-.85-3.39A11.11,11.11,0,0,0,469,91.16c-.56.25-.88-.35-1.45-.32a4.72,4.72,0,0,1-1.16-.46c-.46,0-.88,0-1.2-.32-2-.35-3.77-.88-5.79-1.34-7.27-1.73-14.82-2.86-21.84-5.22a22.47,22.47,0,0,1-7-4c-.46-.64-1-1.16-1.48-1.83-1.76-2.72-1.8-6.21-1.09-9.46.53-1.45.67-3.18,2.12-4.16A1.07,1.07,0,0,1,431.18,64.7Z"/><path d="M557.13,78.07l1.55,1.83c.56,1.59.35,3.35.67,5,0,.53-.39,1.2.11,1.66a.62.62,0,0,0,1,0c1.45-1.31,3-2.12,4.48-3.25a4.21,4.21,0,0,0,1.66-1.13c1.59-1,3.14-2.19,4.69-3.14a33.14,33.14,0,0,1,3.49-2.29,2,2,0,0,1,2-.71c1.45.78,2.26,2.5,3.56,3.42a27,27,0,0,1,1.9,2.26c.18.28.81.39.56.81-.74.92-2.08,1.27-2.36,2.43-.21,3.1-.07,6.6-.11,9.77l.07,7.2c.32.67.64,1.52,1.34,1.83a4.49,4.49,0,0,0,2,1.62c1.13.53,3.32-2.19,3.14.46-1.13,1.62-2.93,2.12-4.3,3.39-1.23.92-2.36,1.73-3.63,2.54-.46.21-.85-.11-1.23-.32-1.59-1.8-3.74-3.63-4.8-5.72a4.18,4.18,0,0,1,.35-2l.25-15c-.14-1.52.14-3.14-.46-4.55-.64-.35-1.16-1.52-2-1.45-3.92,2.82-8.11,5.15-11.89,8.22l-.18.49c.11,3.53-.21,7.3.07,10.87.18,1.09,1.31,1.09,1.83,1.91.63.39,1.52,1.06,2.36.53s1.41-1.27,2.47-1.23a1.07,1.07,0,0,1,.14,1.31,26.58,26.58,0,0,1-2,2c-1.55,1.13-2.93,2.19-4.37,3.42-1,.56-1.87,1.91-3.07,1.31-1.73-1.09-2.61-2.86-4.27-4,0-.46-.56-.6-.88-.78a24.65,24.65,0,0,1-1.73-2.19c.71-.92,2.12-.74,2.4-2,.39-1.09,0-2.47.11-3.74-.11-4.76.56-9.95-.35-14.54a6.44,6.44,0,0,0-2.15-2.5,4.31,4.31,0,0,0-2.4.67c-.28-.14-.71-.21-.71-.6,0-1.38,1.45-1.59,2.22-2.43a11.3,11.3,0,0,0,1.13-.81c1.45-.85,2.61-2.36,4.2-2.86C555.47,76,556.07,77.29,557.13,78.07Z"/><path d="M537.62,77.12c.11.85,1.09,1.31,1.23,2.12.71.25.78,1.13,1.31,1.48,0,.78.85.74,1,1.45.64,1,1.73,1.94,2.12,3,.63.71,1.83,1.48,1.55,2.61-1.91,1.87-4.34,2.61-6.46,4-2.89,1.09-5.43,3-8.29,4.2-.74.81-2,.74-2.79,1.59-.46.39-1.27.14-1.48.88a15.36,15.36,0,0,0-.18,3.81l.25.42c1.59.53,3.1,1.16,4.66,1.76a14.56,14.56,0,0,0,2.26,1.06,1.35,1.35,0,0,0,1.8,0c2.72-1.59,5.54-3,8.22-4.73.74-.21.32.67.71,1a2.19,2.19,0,0,1,.39,1.16c-1.73,1.73-3.7,2.5-5.72,3.74-2.47,1.38-4.9,2.79-7.27,4.37-.63.67-1.48.74-2.22,1.2-.6.14-.88-.53-1.41-.6-1.87-1.06-3.67-2.29-5.54-3.39-.18,0-.21-.07-.25-.18-.64-.74-1.69-.6-2.33-1.31a10.09,10.09,0,0,1-3.35-1.83c.07-.74,1.13-.92,1.76-1.16a2.93,2.93,0,0,0,1-1.31c-.21-3.07.07-6.28-.11-9.42l.11-.25c.07-4.13-.07-8.26-.35-12.42,2.47-.35,5.5-.35,7.94-1.34a29.27,29.27,0,0,0,3.53-1.13c.35-.49,1-.49,1.55-.71a15.71,15.71,0,0,0,2-1.06c1.13-.11,2.5-2.15,3.39-.32C537,76.24,537.06,76.84,537.62,77.12ZM531,80.19l-5.26,2.33a116.68,116.68,0,0,0-.07,12.17c1.73-.67,3.18-1.94,4.9-2.54A73.4,73.4,0,0,0,537,88.3l-1.38-1.83c-1.27-1.55-2.22-3.25-3.42-4.83C531.62,81.25,531.59,80.43,531,80.19Z"/><path d="M610.86,76.52c.56.42.92.92,1.55,1.06.25-.14,0-.46.11-.63l.78-1c.46.07,1,.39,1.38.18a9.39,9.39,0,0,0,2.22.07c.35.18-.18.56.25.63a1.92,1.92,0,0,0-1,1c-.18,2.79-.35,5.15-.28,7.83l-.07,1.52a2.73,2.73,0,0,0,1.45,1.73V89c-.11,0-.14.07-.18.11.56.53,1.83-1.27,1.87.21-.6,1.13-1.87,1.55-2.54,2.75-.11.28-.63,0-.46.42-.39.07-.42-.56-.88-.6-.64-1.31-2.47-1.13-2.61-2.65-.71.46-1.55.74-2.19,1.13-.42,0-.46.53-.85.56l-2.54,1.48c-.74-.18-1.27-1-2-1.23a31.72,31.72,0,0,0-3.35-1.94c-.21,0-.39.11-.6.07s-.25-.32-.14-.49c.53-.53,1.62-.49,1.62-1.41.28-2.65-.53-5-.25-7.76-.14-.67-.92-.81-1-1.48-.21-.18-.07-.6-.11-.81.35-.14.67.21,1,.35a10.92,10.92,0,0,0,6.39-1.59c.18-.42.71-.42,1-.67C610,75.67,610.16,76.48,610.86,76.52Zm-1,1.8c-.25.14-.42.67-.88.74-.64.78-1.59.74-2.29,1.31.11,0,.21,0,.28.07-.32.28-.85.14-1.23.35.07,2,.11,4.3.18,6.21.14,1.34,1.73,1.8,2.72,2.33a5.36,5.36,0,0,0,1.83-1.13c.53,0,1-.6,1.55-.53s.21-.63.46-.92a11.18,11.18,0,0,1-.35-3.1,29.43,29.43,0,0,1-.07-3.49A6.47,6.47,0,0,0,609.91,78.32Z"/><path d="M601.16,111.66a.34.34,0,0,0-.46-.11.77.77,0,0,1-1,.18c-.21,0-.25-.28-.35-.46s.21-.39.42-.53c.78-.6.88-1.76,1.9-2.15v-.11c1.23-.85,2.29-2.08,3.85-2.26a14,14,0,0,1,1.83-.42l.21-.11a8.87,8.87,0,0,1,4,1.41,4.84,4.84,0,0,0,1.83-.71,14,14,0,0,0,0-3.85c-.85-.53-1.94.07-2.86-.28-.74.11-.74,1.23-1.59,1.31l-5.75-.07c-.35-.35-.92,0-1.41-.35-.21-.28.07-.56.25-.78-.11-1.83.18-3.81-.25-5.5-.11-.35-.78-.71-.35-1.16a15.2,15.2,0,0,0,3.35,0c1.73-.14,3-1.41,4.34-2.33.32-.25-.14-.6.18-.88.92-.18.92.74,1.59,1.13,1,1.23,2.89,1.06,4.34,1.06a9.84,9.84,0,0,0,3.35-1.48c.07.32.21.78-.11,1-1,.63-1.69,1.8-2.79,2.12-.39.74-1.16.88-1.83,1.13V97.4a6.87,6.87,0,0,1-3.07.18c-.28-.49-.78-.18-1.23-.35-.71-.11-1.34-.81-2.08-.28-.42.32-1,.28-1.41.71.28,1-.39,2.58.35,3.49,1.48-.39,3.81,1,4.2-1.2A48.16,48.16,0,0,1,617,100l.11.18c.07,2.54,0,5.15.32,7.69.11.18.32.18.35.35-.07.42-.71.18-1,.49a26.58,26.58,0,0,1-2.89.74v.14c-1.38,0-2.22,1.41-3.28,2-.18-.18-.63.07-.71-.35.46-.42-.32-.67-.56-.81a5.91,5.91,0,0,0-5.86-1.2c-.67.42-1.09,1.34-1.8,1.62Z"/><path d="M76.89,8.22C70,7.59,64.17,11.58,58.62,9.78V9.27c6.21,1.29,12.51-2.55,18.27-1.56Z"/><path d="M123.38,99.72l-5.09.06,2-5.16c-1.5-2.82-5-4.59-6.93-7.44-4.17-5-1-12.15.24-17.49,2.7-5.34-3.42-5.61-4.89-9.51-1-2.82-4.62-3.84-3.6-7.47-3.45-6.6-.75-16.05-2.31-23.13-1.83-2.7-5-3.24-6.15-6.45C96,14.58,91.86,7.47,87.93.27l-2-.27C80.52,2.52,75.18,5.82,68.4,4.11c-5,2.58-10.89.81-16.47,2.07-2.73,3.27-3.66,8.19-7.71,10-6.63,1.38-11.85,6.18-18,8.73-.18,7.59-4.86,14.22-10.8,18.54,1,6.6,2.37,13.05,1.8,20.31-2.52,5.79-1.5,14-9.27,16.71-2.52,4.35,1.89,10.92-1.8,15.42l4.38,9L0,114.18v20H116c6.75-14,7.65-15.9,7.65-15.9V99.75Z"/><path class="a" d="M90.24,7.47c5.7,7,2.91,18,11.31,23.4,1.77,8.4-1.56,15.09,2.34,22.62.12,3.21,2.55,5.49,3.84,8.22,1.8,1.89,4.2,2.82,4.89,5.16a13.92,13.92,0,0,1-13.38-2.34l-2-3.06c2.1-1.89,5.64.45,8.22-1.05-1.65-1-6.48.18-8.73-2-2.4-3.39-1.92-8.16-4.89-11.07a11,11,0,0,0-2.58-7.44c0-2.91-.39-6.63,2.31-7.74,2.61.57,7.26.36,9.27-1.8-1.11-1.35-2.13.63-3.36.54-5.82-.39-13.05.6-15.42-6.18-.3-1.89-.33-3.9-1.53-5.4,5.61-2.82,3.9-9.6,6.42-14.16l-.78-.75c-3.39,5-1.74,15.6-11,15.15a41.75,41.75,0,0,1-10.56-2.31C62,13.83,55,12.87,55.29,7.71c8.19,1.08,14.46-4,23.13-2.58,2.76-1.56,5.52-3.15,8.73-3.6C89.1,3.15,88.77,5.67,90.24,7.47Z"/><path class="a" d="M55,11.31c1.08,3.66,8.64,3.09,4.89,7C53.43,23.73,46.23,29.1,37.53,28c4.14-2,8.94-3.6,12.09-6.93l-.27-.27c-4,2.55-8.73,4.29-13.11,6.45L33.93,26c3.36-2,9.12-3,12.09-6.69-2.43.06-4.41,2.76-6.93,3.33C35.94,23,33,26,30.33,25.47c1,2.34,4.77,1.62,6.69,3.6l-1,4.86c-.15-.12-.27-.33-.51-.24C35.07,39.36,28.8,43.8,23.4,45.51c-1.86.27-2.94-1.41-4.65-1.53-.18,2.55,3.51,2.73,5.16,4.35.84,6.21,4,13.68.24,19.56l-4.11,2,.27.27c.6-.09-.51.21-.51-.27-.27,1.35,2.37,1.5,3.33,2.85-.15,7.53-1.8,15.51-8.22,20.31A13.33,13.33,0,0,1,10,99.51c-5.31-4.8,4.11-6.18,5.4-10.29A31.48,31.48,0,0,0,21.33,75.6l1.56-.27c-1-2.37-4.17-2.55-5.94-4.62,3.78-7.56.6-17.79-.24-26.22C22.2,39.39,27.24,33.21,28,25.71c7-5.1,17.31-5.94,22.11-14.13,1-1.41,1.47-4.17,3.87-3.87Z"/><path d="M87.15,20.31c-1.14,1.17-2.73,3.15-4.62,2.31A13.58,13.58,0,0,0,90.24,10C91.5,13.44,89.4,17.61,87.15,20.31Z"/><path d="M75.33,11.58c-.84,1.77-3.3,1.83-5.13,2.31l-9.51-1v-.54C65.22,12.66,71,14,75.33,11.58Z"/><path class="a" d="M67.35,20.31c1.59,4.47,3.39,9.51,7.2,12.36l.54-.54c-2.88-3.51-5.34-7.74-6.18-11.55,2.64.33,4.86-.09,4.62,3.33,1.56,2.34,3,5.19,5.4,6.69l.51-.51c-2-2.7-5.16-5.37-4.89-9.27a7.34,7.34,0,0,0,4.14-.75A13.69,13.69,0,0,0,88.2,31.62l-1.8,6.45c4,3.54,2.55,9.9,6.15,14.4-.45,4.26,5.58,8.1,1.56,12.6.09,1.71-1.38,4.2.24,5.13l1.8-7.2,4.14,4.38c-6.66,4.77-5.28,11.16-3.6,18.24,4.65,5.43-.69,9.84,3.6,15.45l5.4,8c-2.4.36-7.08-.09-8.49-3.6-.78-2.73-1.56-5.49-2.31-8.22-.87.9-.57,3.06-.27,4.38L97.44,109a7.72,7.72,0,0,1-6.15-1c-3-4.32-2.16-10.89.24-14.91a6.78,6.78,0,0,0,1.29-2.31c-.27-.45-.93-.78-1.29-.27-3,5.25-5.46,12.87-1,18.27-1.77,1-4.62.42-6.42-.51-3.66-3.36-1.89-9.09-.54-13.14.57-2.19,2.13-4.2,3.36-5.91a1.25,1.25,0,0,0-1.29-.51c-4.38,5.34-5.67,13.53-3.87,19.8-1.92,1-3.45.27-5.4-.24-1.74-4.23,1.14-8.76.54-13.14C74.67,98,74.16,104,74.82,108.78c-1.68,1.74-4.26,0-6.18-.51-.27-2.94.48-5,.51-7.47-2.25,1-1.53,5.58-2,7.2-2.46.15-5.55.9-7.47.27l-.24-1.8c-.57-.09-1.35,1.26-1,2.31-3.42-.27-7.32.63-10.26-.78-1.26-1.95,2.55-5.19-.54-6.18-1.23,1.86-.66,4.44-1.53,6.45a7.3,7.3,0,0,1-5.67-.78c1.17-1.77,3.09-4.65,2.34-7.47l-1-.75c-1.23,3.15-1.32,7.68-4.89,9-2,.06-3.93.93-5.91.24,2.31-2.28,2.91-5.58,3.6-8.22-3,2.31-3.18,6.45-6.15,8.73L26,108.78c-.39-1.86,2.67-3.27,1.56-5.4-2.31,1.5-2.4,7-6.42,5.4,1-2.82,3.15-5.76,3.84-9L24.15,99a48.42,48.42,0,0,1-5.4,9.51,4.89,4.89,0,0,1-3.33,0c2.67-4.38,6.09-9.87,3.6-15.69,4.14-5.52,5.79-13,5.91-19.29,1.23,1.68,2.85,3.63,3.09,5.94,1.11-.09.84-1.5.51-2.07l-3.6-6.93c4.77-6.72.66-16.29,1.56-24.18l4.86-2.82c.09,4.71-.21,9.27.27,14.13l1-1c-.81-5.31,1.56-9.9.51-14.67,3.48-2.4,4.8-6.12,5.16-10,1.62,2.94.18,8,.24,12.09,1.62.27.78-2,1.56-2.85,1-3.6.42-7.86-.51-11.31.69-.54,1.86.06,2.55-.51,1.59,2.76.09,6.48,1.29,8.76H44c.24-2.46.84-6.33-.51-8.76l3.36-1a3.65,3.65,0,0,0,1,2.58c1.17-.87,0-2.07,0-3.09L51.93,26c.51,1.11-.18,2.07.78,3.09.93-.75.33-2.58.51-3.87,3-1.77,6.21-3.51,8.49-6.42.81,2.49.93,6.57,2.31,9.75,1.29.12,1.62,1.56,1.8,2.58,1.44-.21,2.13,2.25,3.33,1.8-4.26-3.78-5.46-9.63-5.91-14.91C63.93,19.92,66,19.56,67.35,20.31Z"/><path d="M86.4,26.49c-.69-.21-1,.33-1.56.51l-.51-.51c3.15-.57,5.28-3.63,7-6.18A7.3,7.3,0,0,1,86.4,26.49Z"/><path d="M99.51,37.29c-2.46,4.44.12,8.73.78,12.84C96.6,46.26,98.7,38,98.49,32.67,99.75,33.81,99.45,35.61,99.51,37.29Z"/><path d="M20.82,42.69c.57-2,4.08-3.45,4.89-5.67L28,33.18C27.63,36.63,24.39,40.68,20.82,42.69Z"/><path d="M95.64,41.67c0,2.88,1.08,5.94,1,8.22a3.77,3.77,0,0,1,1.26,2c-.15.33-.48.27-.75.27-1.11-3.78-2.76-7.53-2.58-11.31-2.94-2.52,1.23-4.95,0-7.71C96.9,36.15,92.22,39.15,95.64,41.67Z"/><path d="M23.13,43.47c3.63-2.67,7.26-4.8,9.78-9C31.59,39.39,26.79,41.61,23.13,43.47Z"/><path d="M20.82,47.82c1.5,4.23,2.61,9.6,1,14.16h-.75c2.7-4.77-.69-9.87-.78-14.4Z"/><path d="M75.84,42.93c2.94.21,5.43-4.56,8.49-2.55-4.14,3.75-9.75,6.66-14.4,9.75-3.57-4.29-7.62-9.06-13.38-9.75-3.72-.27-6.81,1.68-9,4.62-2.1,3.6,1,6,3.36,7.2C61,57.66,73.2,58.17,83,64.29a12.45,12.45,0,0,1,4.38,12.33,11,11,0,0,1-3.87,7.2L66.33,96.42c-7.44-5.1-16.56-12.51-26.73-9.51-4.65,1.26-8.49,4-10.47,8.4-.41,1.14-.12,2.19.69,2.4,2.73.81,2.35-3.81,4.89-2.31a6,6,0,0,1-3.36,4.11c-2.43.69-4.87-.66-4.62-2.82,1.14-8,9-11.82,15.69-14.16,9.93-3,21.57.21,28.8,7.2,5.19-2.61,9.72-5.7,12.09-11.31,1.29-4-2.54-8.07-6.42-10C66.12,63.66,53.52,62.73,44.22,55c-1.69-1.69-2.07-4.7-1-7.71,1.86-6.3,8.19-8.91,14.13-9.78A26.6,26.6,0,0,1,75.84,42.93Z"/><path d="M41,57.39c9.21,10.8,25,8.94,36.45,15.9a6.72,6.72,0,0,1,2,6.69c-.69,2.14-2.19,5.14-3.84,4.62-2-1.05,2.22-4-1-5.4C64,73.53,51.3,72.9,40.89,66.87c-3.87-2.7-4.35-7.59-3.6-12.09.36-1.38,1.19-3.78,2.55-3.36C40.8,53.31,39.3,55.2,41,57.39Z"/><path class="a" d="M114.42,91.29l4.11,3.84c-1.29,1.86-3.36,3.72-5.4,3.6-3.36-1.32-7.17-2.67-9.51-5.4-5-5.58-8.82-14.16-5.4-22.11,3.39-5,10.08.3,14.4-3.6C110.64,75.09,107.79,85.05,114.42,91.29Z"/><path d="M101.31,73.8c-1.89,6.09.81,12.21,3.84,17.22-3.84-4.5-6.54-11-4.62-17.73a6.37,6.37,0,0,1,1.8-2.58C102.81,71.55,101,72.51,101.31,73.8Z"/><path d="M107.22,71c-2.7,3.75-.39,9.24,0,13.62,2.22,4.14,4.47,8.52,9,10.8-2.13.72-3.6-1.71-5.4-2.58-1.41-2.1-5.25-7.38-5.4-12.09C105.24,77.49,104.31,72.81,107.22,71Z"/><path class="a" d="M18,81.51C14.94,85.65,13,91,8.49,93.09c-1.74-6,7-7.89,6.42-13.38C13.68,81.72,11.4,86,9,86.13c-3.24-5.31,3.3-5.13,5.13-9l2.58-5.4C21.75,73.05,18.54,78.51,18,81.51Z"/><path class="a" d="M113.64,100.8c-.87,2.58-1.14,5.64-3.33,7.47-5.19-.72-8-6.48-10-10.56-.48-2-.18-3.27-.27-5.4A17.18,17.18,0,0,0,113.64,100.8Z"/><path class="a" d="M14.13,105.42c-5.82-4.11,3-7.26,3.09-11.82C18.39,97.83,17.7,102.54,14.13,105.42Z"/><path class="a" d="M122.4,101.58h0l-7.35,12.2H2.7l7.89-7.37c.93,1.65,1.41,4.26,3.54,4.41,7.5-.72,16.59,1.65,23.91-1,3.87,1,6.45,1.29,9.78.51,8.37,1.08,16.74-1.62,25.2.78,3.63-1.26,8.4.21,12.33-.27,8.79,1.53,17.79-1.05,25.8,0,5.7-8.56,6.15-9.46,6.15-9.46h5.17Z"/><path class="a" d="M116,116.33v14.4l6.45-12.6V104.78c-4.05,7.65-6.45,11.55-6.45,11.55Z"/><path class="a" d="M13.74,124.92l-.13-2.46V119H17v10.8H13.68l-3.86-5.88.13,2.46v3.42H6.57V119H9.89Z"/><path class="a" d="M18.19,129.83,22.06,119h3.6l3.87,10.8H26l-.42-1.42H22.06l-.4,1.42Zm5.64-7.55-1.09,3.87H25Z"/><path class="a" d="M30.16,119h9.9v2.84H36.88v8H33.34v-8H30.16Z"/><path class="a" d="M41.58,119h3.54v6.47c0,1.07.21,2,1.66,2,1.27,0,1.65-.81,1.65-2V119H52v6.11c0,3.47-1.6,5-5.19,5-3.35,0-5.21-1.27-5.21-5Z"/><path class="a" d="M57.47,126.06v3.77H53.93V119H59c3.6,0,4.79,1,4.79,3.08A2.5,2.5,0,0,1,62,124.74c1.14.42,1.83.69,1.83,2.87,0,1.41,0,1.89.38,1.89v.33H60.62a7,7,0,0,1-.18-1.89c0-1.41-.24-1.87-1.89-1.87Zm0-2.37h1.4c1.1,0,1.68-.27,1.68-1s-.6-1.12-1.42-1.12H57.47Z"/><path class="a" d="M71.36,122.16a1,1,0,0,0-.51-.73,2,2,0,0,0-.92-.2c-.78,0-1.12.23-1.12.62,0,1.62,6.21.62,6.21,4.55,0,2.51-2.08,3.72-5.06,3.72s-4.71-1.66-4.79-3.62h3.39a1.23,1.23,0,0,0,.58.85,1.94,1.94,0,0,0,1,.27c.88,0,1.47-.29,1.47-.8,0-1.64-6.21-.51-6.21-4.64,0-2.3,2-3.45,4.68-3.45,3,0,4.37,1.53,4.62,3.42Z"/><path class="a" d="M76,119h9.9v2.84H82.7v8H79.16v-8H76Z"/><path class="a" d="M87.48,129.83V119h8.81v2.52H91v1.54h4.46v2.52H91v1.7H96.5v2.52Z"/><path class="a" d="M105.38,124.92l-.13-2.46V119h3.39v10.8h-3.32l-3.85-5.88.13,2.46v3.42H98.21V119h3.32Z"/></svg>