<svg width="468.75" height="468.75" xmlns="http://www.w3.org/2000/svg">
 <defs>
  <style>.a{isolation:isolate;}</style>
 </defs>
 <title>Artboard 1</title>
 <g>
  <title>background</title>
  <rect fill="none" id="canvas_background" height="402" width="582" y="-1" x="-1"/>
 </g>
 <g>
  <title>Layer 1</title>
  <g transform="rotate(-180 234.37500000000003,234.37499999999997) " id="svg_1" class="a">
   <path id="svg_2" d="m386.38,223.83c-0.15,-0.17 -0.07,-0.43 -0.23,-0.6s-0.41,-0.17 -0.61,-0.25s-0.26,-0.16 -0.38,-0.26l-108.74,-93.24a15.51,15.51 0 1 0 -21.94,21.94l78.52,67.32l-254.87,0a15.63,15.63 0 0 0 0,31.26l254.87,0l-78.51,67.31a15.52,15.52 0 1 0 21.94,21.95l108.67,-93.2c0.14,-0.11 0.31,-0.18 0.45,-0.3a1.4,1.4 0 0 0 0.6,-0.26c0.16,-0.17 0.08,-0.42 0.23,-0.58a15.24,15.24 0 0 0 0,-21.1l0,0.01zm-152,-223.83c-129.45,0 -234.38,104.94 -234.38,234.38s104.93,234.37 234.38,234.37s234.37,-104.93 234.37,-234.36s-104.93,-234.39 -234.37,-234.39zm0,437.5c-112.18,0 -203.13,-91 -203.13,-203.12s90.94,-203.13 203.13,-203.13s203.12,91 203.12,203.14s-90.94,203.11 -203.12,203.11z"/>
  </g>
 </g>
</svg>