<svg xmlns="http://www.w3.org/2000/svg" viewBox="0 0 209.76 93.54"><defs><style>.a{fill:#fff;}.b{fill:#444;}</style></defs><title>Artboard 3</title><ellipse class="a" cx="104.88" cy="46.77" rx="104.88" ry="46.77"/><ellipse class="b" cx="104.88" cy="46.77" rx="92.13" ry="36.85"/><ellipse class="a" cx="104.88" cy="46.77" rx="82.2" ry="37.7"/><path class="b" d="M95.19,31.72c-.09.18-.18.32-.27.32s-.14-.09-.14-.18a.27.27,0,0,1,0-.18,2.72,2.72,0,0,0,.27-1.09,1.44,1.44,0,0,0-1-1.4,5.23,5.23,0,0,0-2-.36c-.41,0-.86,0-1.36.09a25.77,25.77,0,0,0-10.33,3.62A111.2,111.2,0,0,0,69.15,40.6c-.18.14-.32-.14-.32.18,0,.09,0,.18,0,.27a39.38,39.38,0,0,0,2.85,8.43c1.68,3.58,4.35,5.16,7.29,5.16A10.61,10.61,0,0,0,84.46,53a.17.17,0,0,1,.14,0c.09,0,.18,0,.18.14a.25.25,0,0,1-.14.23,13.26,13.26,0,0,1-6.84,2,8.15,8.15,0,0,1-7.34-3.85,31.08,31.08,0,0,1-3.08-9c0-.18-.09-.23-.18-.23a.45.45,0,0,0-.14,0c-3.17,5.07-5.62,7.79-9,10.33s-5.89,2.94-7.56,2.94c-1.49,0-3.76-.54-3.76-2.31v0c0-.13,0-.23.14-.23s.18.09.18.27c.14,1.45,2.22,1.81,3.44,1.81a12.26,12.26,0,0,0,7.25-2.85,45.25,45.25,0,0,0,9.06-11.05C69.15,37.29,70.78,33.85,73,30a13.29,13.29,0,0,1-3,.27c-3.26,0-6.43-1.09-9.74-1.22a6.42,6.42,0,0,0-2.94.36,4.39,4.39,0,0,0-1.45,1.27c-1,1.27-1.09,3.08-1.13,4.67,0,.23,0,.36-.14.36s-.23-1.45-.23-1.68a6.81,6.81,0,0,1,1.77-5A6.65,6.65,0,0,1,61,27.14a41.55,41.55,0,0,1,6.52,1,49.2,49.2,0,0,0,5.71.82c.41,0,1.18-1,1.18-1,.09-.23.32-.09.36,0s-.18.45-.18.5c-2.4,4.35-4.76,9.69-6.34,12.5l1.13-1a116,116,0,0,1,10.69-7.93c3.4-2.17,7-4,10.33-4.66a8.27,8.27,0,0,1,1.49-.14,3.52,3.52,0,0,1,3,1.22,3.33,3.33,0,0,1,.59,1.86A4.65,4.65,0,0,1,95.19,31.72Z"/><path class="b" d="M96.41,45a8.73,8.73,0,0,1-2.94,3.17c-.86.63-1.72,1.13-2.54,1.81a7.52,7.52,0,0,0-1.68,1.81c-.45.72-1.22.91-1.9,1.27-.09,0-.14.09-.23.09a.17.17,0,0,1-.18-.18.34.34,0,0,1,0-.18,18.37,18.37,0,0,0,1-3.4,19.68,19.68,0,0,1,2-5.53,1.78,1.78,0,0,1,.82-.82A11.39,11.39,0,0,0,92,42.63a.27.27,0,0,1,.18,0c.09,0,.18,0,.18.14a.31.31,0,0,1-.14.23,4.3,4.3,0,0,0-1.09,1.72c-.81,1.81-1.77,3.67-1.77,5.53v0c0,.09,0,.18.14.18s0,0,.09,0A29.71,29.71,0,0,1,93.06,48a6.79,6.79,0,0,0,1.86-1.72A2.4,2.4,0,0,0,95.37,45a1.3,1.3,0,0,0-.63-1.13c-.09,0-.09-.09-.09-.18A1.33,1.33,0,0,1,95,43c.23-.27.45-.5.63-.5s0,0,.09,0a1.91,1.91,0,0,1,.82,1.58A2.55,2.55,0,0,1,96.41,45Z"/><path class="b" d="M110.86,49.83a19,19,0,0,1-5.16,4.8,4,4,0,0,1-1.95.59,2.52,2.52,0,0,1-1.72-.63,2.1,2.1,0,0,1-.68-1.68,10.68,10.68,0,0,1,1.54-4.39,17.75,17.75,0,0,1-3.62,3.71,2.28,2.28,0,0,1-1.27.45.87.87,0,0,1-.91-1,2.25,2.25,0,0,1,.14-.72,16.41,16.41,0,0,1,6.11-7.84,2.87,2.87,0,0,1,1.45-.45,2.05,2.05,0,0,1,1.36.45,3.09,3.09,0,0,1,.59-.5.91.91,0,0,1,.36-.18.12.12,0,0,1,.14.14.6.6,0,0,1-.14.32,29.7,29.7,0,0,0-3,6,12.77,12.77,0,0,0-.91,3.85,2.16,2.16,0,0,0,.27,1.18,1.31,1.31,0,0,0,1.13.59,2.11,2.11,0,0,0,1-.23,14.24,14.24,0,0,0,5-4.76c0-.09.18-.09.23-.09a.12.12,0,0,1,.14.13A.76.76,0,0,1,110.86,49.83Zm-7-6.21a1.93,1.93,0,0,0-1.45.82,18.37,18.37,0,0,0-3.35,6.07,3,3,0,0,0-.14.77c0,.13,0,.23,0,.27a.23.23,0,0,0,.18.09.73.73,0,0,0,.41-.18,16.92,16.92,0,0,0,3.35-3.76,18,18,0,0,0,2-3.49A1.47,1.47,0,0,0,103.88,43.63Z"/><path class="b" d="M129.61,35a34.39,34.39,0,0,1-14,9.06c-.82,1.45-1.59,3-2.36,4.62a8.55,8.55,0,0,0-1,3.26,1.39,1.39,0,0,0,1.5,1.59,6.65,6.65,0,0,0,3-1.09,24.92,24.92,0,0,0,5.53-4.8.18.18,0,0,1,.18-.09c.09,0,.18,0,.18.14a.42.42,0,0,1-.14.23,33.1,33.1,0,0,1-5.43,4.71,9.88,9.88,0,0,1-4.67,1.72,1.75,1.75,0,0,1-1.9-2,9.32,9.32,0,0,1,1-3.62c.59-1.27,1.13-2.49,1.49-3.12a.67.67,0,0,0,.09-.41.58.58,0,0,0-.23-.5c-.09-.09-.18-.14-.18-.23s.14-.27.41-.32a1.53,1.53,0,0,0,1.27-.81,78.66,78.66,0,0,1,11.14-15,19.56,19.56,0,0,1,4.08-3.12,2,2,0,0,1,.91-.36.72.72,0,0,1,.59.41,7.52,7.52,0,0,1,.82,3.62v.63A9,9,0,0,1,129.61,35ZM130.79,30a7.72,7.72,0,0,0-.68-2.9c-.32-.68-.59-1-1-1a2.16,2.16,0,0,0-1.13.5c-1.45.91-4,4-5.8,6.66-2,2.9-4.17,6.34-6.3,10.19a32.17,32.17,0,0,0,13-8.29,7.07,7.07,0,0,0,1.95-5.07Z"/><path class="b" d="M131.74,46.35A25.32,25.32,0,0,1,123.68,53a7.4,7.4,0,0,1-2.76.86c-.77,0-1.22-.36-1.22-1.13A5.92,5.92,0,0,1,120.6,50c1-1.81,2.36-4.08,3.53-5.89a9.63,9.63,0,0,1,1.18-1.81c.09,0,.18-.14.27-.14a.43.43,0,0,1,.41.41,3.64,3.64,0,0,1,.14.5v.18a.65.65,0,0,1-.18.45,29.26,29.26,0,0,0-1.81,2.49,20.65,20.65,0,0,0-2.4,4.8,2.24,2.24,0,0,0-.14.72c0,.68.36,1.09,1,1.09a2.74,2.74,0,0,0,.54-.09c3-1,6.34-4,8.42-6.61a.18.18,0,0,1,.18-.09.12.12,0,0,1,.14.14S131.79,46.26,131.74,46.35ZM128.52,38c-.41,0-.54-.18-.54-.54a1.71,1.71,0,0,1,1.5-1.68.55.55,0,0,1,.59.59A1.78,1.78,0,0,1,128.52,38Z"/><path class="b" d="M141.93,44.17c-2.45.18-5.48.36-8.56.45a43.09,43.09,0,0,0-1.81,4.17,5.57,5.57,0,0,0-.45,1.95c0,.77.41,1.09,1.18,1.09a12.57,12.57,0,0,0,4.89-1.68s0,0,.09,0a.19.19,0,0,1,.18.18c0,.09,0,.14-.14.23a17.29,17.29,0,0,1-2.94,1.36,10,10,0,0,1-3.17.68c-1.22,0-1.86-.5-1.86-1.59a6.65,6.65,0,0,1,.91-2.9c.59-1.13,1.22-2.31,1.9-3.44-.86,0-1.72,0-2.58,0a.21.21,0,0,1-.23-.18.34.34,0,0,1,.32-.32c.91,0,1.81,0,2.81,0A65.11,65.11,0,0,1,138,36.88a.27.27,0,0,1,.18,0c.09,0,.18,0,.18.14s-.09.14-.18.23c-1.27,1.72-3.12,4.53-4.62,6.88,2.94-.09,6.07-.18,8.29-.23,0,0,.27,0,.27.14A.21.21,0,0,1,141.93,44.17Z"/><path class="b" d="M151.26,48.21a20.31,20.31,0,0,1-7.84,4.57,8.43,8.43,0,0,1-2.22.32h-.14c-1.45,0-2.35-.68-2.35-1.95a6,6,0,0,1,.86-2.72,13,13,0,0,1,5.48-5.16,6,6,0,0,1,2.26-.63h0c.41,0,.86.09,1,.59,0,.09,0,.14,0,.23a3.15,3.15,0,0,1-.09.59c-.5,1.72-4.39,3.62-7.2,4.66l-.41,1.09a2.47,2.47,0,0,0-.18.91v.09c0,1,.82,1.54,2,1.54h.09a5.53,5.53,0,0,0,1.45-.18,17.72,17.72,0,0,0,7.07-4.21s.09-.09.14-.09.14.09.14.18A.35.35,0,0,1,151.26,48.21Zm-4.62-4c0-.54-.27-.81-.68-.81a1.78,1.78,0,0,0-1,.36,11.58,11.58,0,0,0-3.71,4.48,16.33,16.33,0,0,0,3.26-1.45c1.18-.72,2-1.45,2.08-2.4Z"/><path class="b" d="M162.77,44.17c-2.45.18-5.48.36-8.56.45a42.62,42.62,0,0,0-1.81,4.17,5.55,5.55,0,0,0-.45,1.95c0,.77.41,1.09,1.18,1.09A12.57,12.57,0,0,0,158,50.15s0,0,.09,0a.2.2,0,0,1,.18.18c0,.09,0,.14-.14.23a17.27,17.27,0,0,1-2.94,1.36,10,10,0,0,1-3.17.68c-1.22,0-1.86-.5-1.86-1.59a6.65,6.65,0,0,1,.91-2.9c.59-1.13,1.22-2.31,1.9-3.44-.86,0-1.72,0-2.58,0a.21.21,0,0,1-.23-.18.34.34,0,0,1,.32-.32c.91,0,1.81,0,2.81,0a65,65,0,0,1,5.57-7.25.27.27,0,0,1,.18,0c.09,0,.18,0,.18.14s-.09.14-.18.23c-1.27,1.72-3.13,4.53-4.62,6.88,2.94-.09,6.07-.18,8.29-.23,0,0,.27,0,.27.14A.21.21,0,0,1,162.77,44.17Z"/><path class="b" d="M54.18,68a8.39,8.39,0,0,1-.93,2.26A2.72,2.72,0,0,1,51,71.65c-.61,0-1.43-.27-1.43-1a.66.66,0,0,1,.68-.66c.52,0,.71.47.68.93,0,.25,0,.47.3.47a1,1,0,0,0,.82-.56,13.75,13.75,0,0,0,1-2.69l2-6.63h-.86c-.08,0-.36,0-.36-.11,0-.31.19-.3.44-.3h.91l.08-.27a6.7,6.7,0,0,1,1.26-2.58,4,4,0,0,1,2.34-1.15c.58,0,1.15.25,1.15.91a.64.64,0,0,1-.68.69c-1,0-.38-1.18-1.07-1.18a1.19,1.19,0,0,0-.77.46,6,6,0,0,0-.94,2.15l-.3,1H57.5s.36,0,.36.11a.52.52,0,0,1-.06.22c-.08.11-.27.08-.36.08H56.18Z"/><path class="b" d="M63.51,66.81a4.72,4.72,0,0,1-3.08,1.43,2.84,2.84,0,0,1-2.64-3.06A4.54,4.54,0,0,1,62,60.85a2.93,2.93,0,0,1,2.77,3.06A4.23,4.23,0,0,1,63.51,66.81Zm-1.4-5.64c-2.11,0-3.19,2.76-3.19,4.53,0,1.08.35,2.2,1.62,2.2,2,0,3.16-3,3.16-4.68C63.7,62.14,63.34,61.17,62.12,61.17Z"/><path class="b" d="M67.58,62.91a3.74,3.74,0,0,0,.19-.91c0-.14,0-.33-.2-.33-.36,0-1,.78-1.16,1.05l-.14.2c0,.06-.14.24-.24.24a.11.11,0,0,1-.11-.11c0-.25.64-1,.8-1.18.33-.38,1.05-1,1.57-1s.58.58.58.93a3.48,3.48,0,0,1-.22,1.07L68,65.06c.58-1,2.12-4.21,3.47-4.21a.73.73,0,0,1,.79.79c0,.43-.25.93-.72.93-.79,0-.35-.77-.77-.77s-1.38,1.42-1.56,1.7a20.86,20.86,0,0,0-1.9,3.85c-.17.58-.13.71-.75.71-.14,0-.44,0-.44-.21a3.51,3.51,0,0,1,.11-.44Z"/><path class="b" d="M82.72,61.1s.36,0,.36.09a.61.61,0,0,1,0,.14c-.08.28-.13.24-.42.24H81.56a2.58,2.58,0,0,1,.79,1.77,2.74,2.74,0,0,1-.82,1.81,3.32,3.32,0,0,1-2.31.91,2.37,2.37,0,0,1-1.67-.63.86.86,0,0,0-.47.68c0,.52.82.77,1.23.88,1.13.35,3.6.9,3.6,2.39a2.07,2.07,0,0,1-1.13,1.67,4.66,4.66,0,0,1-2.44.6c-1.21,0-3.72-.58-3.72-2.09s1.84-1.6,2.86-1.9c-.53-.21-1.05-.52-1.05-1.16s.5-1,.91-1.27a2.53,2.53,0,0,1-.69-1.73,2.93,2.93,0,0,1,3.06-2.64,5.72,5.72,0,0,1,1.35.25Zm-4.84,6.73c-.9.24-2.25.57-2.25,1.7,0,1.35,1.73,1.84,2.86,1.84,1,0,2.44-.45,2.44-1.62a1.13,1.13,0,0,0-.68-1.05,8.49,8.49,0,0,0-1.52-.6Zm2-6.71c-1.37,0-2.2,1.86-2.2,3a1.5,1.5,0,0,0,1.38,1.65c1.38,0,2.2-1.93,2.2-3.1A1.38,1.38,0,0,0,79.89,61.12Z"/><path class="b" d="M84.78,65.38v.36a1.61,1.61,0,0,0,1.67,1.81,3.4,3.4,0,0,0,2.47-1.43c0-.06.09-.12.17-.12s.11,0,.11.11-.33.52-.41.61a4.2,4.2,0,0,1-3,1.53,2.28,2.28,0,0,1-2.26-2.47,5.24,5.24,0,0,1,4.81-4.92,1.65,1.65,0,0,1,1.82,1.49c0,2.28-3.49,2.58-5.17,2.77l-.2,0Zm3.77-1.87A2.49,2.49,0,0,0,89.08,62a.83.83,0,0,0-.93-.89c-1.75,0-2.92,2.2-3.29,3.67C86,64.73,87.83,64.45,88.55,63.51Z"/><path class="b" d="M97.22,66.24A3.64,3.64,0,0,0,97,67a.28.28,0,0,0,.3.31c.5,0,1.38-1.1,1.65-1.49,0-.06.09-.16.19-.16a.12.12,0,0,1,.11.11,3.64,3.64,0,0,1-.71,1.05c-.41.46-1.35,1.37-2,1.37-.47,0-.68-.25-.68-.71a5.2,5.2,0,0,1,.42-1.68l1.12-3a2.72,2.72,0,0,0,.22-.85.5.5,0,0,0-.55-.55c-.83,0-1.82,1.16-2.31,1.73a16.37,16.37,0,0,0-2.42,4.31c-.13.46-.14.54-.64.54-.16,0-.49.08-.49-.19a1.54,1.54,0,0,1,.09-.36l1.4-4.57a3.27,3.27,0,0,0,.19-.86c0-.21-.08-.38-.31-.38-.41,0-1.27,1.05-1.46,1.38,0,.08-.08.17-.17.17a.11.11,0,0,1-.13-.11,3.86,3.86,0,0,1,.68-1c.39-.47,1.21-1.26,1.87-1.26.49,0,.64.31.64.77A5.14,5.14,0,0,1,93.73,63l-.68,2.15,0,0c.86-1.57,2.7-4.34,4.73-4.34a.88.88,0,0,1,1,.88,3.66,3.66,0,0,1-.3,1.15Z"/><path class="b" d="M101.34,65.38v.36A1.61,1.61,0,0,0,103,67.55a3.4,3.4,0,0,0,2.47-1.43c0-.06.09-.12.17-.12s.11,0,.11.11-.33.52-.41.61a4.2,4.2,0,0,1-3,1.53,2.28,2.28,0,0,1-2.26-2.47,5.24,5.24,0,0,1,4.81-4.92,1.65,1.65,0,0,1,1.82,1.49c0,2.28-3.49,2.58-5.17,2.77l-.2,0Zm3.77-1.87a2.49,2.49,0,0,0,.53-1.46.83.83,0,0,0-.93-.89c-1.74,0-2.92,2.2-3.28,3.67C102.58,64.73,104.39,64.45,105.11,63.51Z"/><path class="b" d="M109.07,62.91a3.76,3.76,0,0,0,.19-.91c0-.14,0-.33-.2-.33-.36,0-1,.78-1.16,1.05l-.14.2c0,.06-.14.24-.24.24a.11.11,0,0,1-.11-.11c0-.25.64-1,.8-1.18.33-.38,1.05-1,1.57-1s.58.58.58.93a3.48,3.48,0,0,1-.22,1.07l-.68,2.22c.58-1,2.12-4.21,3.47-4.21a.73.73,0,0,1,.79.79c0,.43-.25.93-.72.93-.79,0-.35-.77-.77-.77s-1.38,1.42-1.56,1.7a20.82,20.82,0,0,0-1.9,3.85c-.17.58-.13.71-.75.71-.14,0-.44,0-.44-.21a3.7,3.7,0,0,1,.11-.44Z"/><path class="b" d="M119.93,61.26c.14-.49.13-.57.64-.57.09,0,.53-.08.53.14a1.77,1.77,0,0,1-.08.32l-1.62,5.31a2,2,0,0,0-.12.52c0,.13,0,.24.16.24.39,0,1.13-1,1.32-1.29,0-.08.16-.28.27-.28a.12.12,0,0,1,.11.13,4,4,0,0,1-.83,1.3,3.43,3.43,0,0,1-1.87,1.16.4.4,0,0,1-.42-.46,3.21,3.21,0,0,1,.17-.88l1-3.11c-.88,1.44-3,4.45-4.84,4.45-.88,0-1.24-.85-1.24-1.62a6.39,6.39,0,0,1,1.81-3.87,5.64,5.64,0,0,1,3.8-1.9,1.33,1.33,0,0,1,1.21.55Zm-1.29-.11c-1.15,0-2.26,1.1-2.92,2a7,7,0,0,0-1.43,3.33c0,.44.22,1,.72,1,1,0,2.36-1.68,2.91-2.37s1.73-2.34,1.73-3.07S119.18,61.15,118.64,61.15Z"/><path class="b" d="M124,64.78A2.84,2.84,0,0,1,122.87,63a2.33,2.33,0,0,1,2.53-2.14c.31,0,1.9.11,1.9.66a2.39,2.39,0,0,1-.11.45c0,.13-.08.46-.28.46s-.39-.27-.49-.36a2.17,2.17,0,0,0-1.52-.87,1.06,1.06,0,0,0-1.12,1.05c0,1.26,2.59,2.25,2.59,3.87a2.2,2.2,0,0,1-.91,1.54,3.32,3.32,0,0,1-1.87.58,3.52,3.52,0,0,1-1.81-.53c-.14-.1-.36-.25-.36-.44a2.66,2.66,0,0,1,.14-.5c0-.13.09-.57.31-.57.43,0,.71,1.7,2.11,1.7a1.39,1.39,0,0,0,1.4-1.21,2.09,2.09,0,0,0-.86-1.43Z"/><path class="b" d="M129.12,68.47a6.21,6.21,0,0,1-1.23,2.45,2.78,2.78,0,0,1-1.89.83c-.49,0-1.21-.19-1.21-.79a.54.54,0,0,1,.53-.55c.64,0,.58,1,1.24,1s.83-.79,1-1.27l2.31-7.56A2.13,2.13,0,0,0,130,62c0-.12,0-.28-.19-.28-.55,0-1.41,1.37-1.62,1.37s-.11,0-.11-.13.66-.9.79-1c.39-.38,1.24-1.15,1.84-1.15.38,0,.49.24.49.58a5,5,0,0,1-.27,1.13Zm2.09-8.63c-.33,0-.49-.28-.49-.6s.35-1,.8-1a.51.51,0,0,1,.5.55C132,59.25,131.7,59.85,131.21,59.85Z"/><path class="b" d="M137.71,66.81a4.72,4.72,0,0,1-3.08,1.43A2.84,2.84,0,0,1,132,65.17a4.53,4.53,0,0,1,4.23-4.32A2.93,2.93,0,0,1,139,63.92,4.23,4.23,0,0,1,137.71,66.81Zm-1.4-5.64c-2.11,0-3.19,2.76-3.19,4.53,0,1.08.35,2.2,1.62,2.2,2,0,3.16-3,3.16-4.68C137.9,62.14,137.53,61.17,136.31,61.17Z"/><path class="b" d="M146.49,66.24a3.61,3.61,0,0,0-.24.8.28.28,0,0,0,.3.31c.5,0,1.38-1.1,1.65-1.49,0-.06.09-.16.19-.16a.12.12,0,0,1,.11.11,3.63,3.63,0,0,1-.71,1.05c-.41.46-1.35,1.37-2,1.37-.47,0-.68-.25-.68-.71a5.2,5.2,0,0,1,.42-1.68l1.12-3a2.71,2.71,0,0,0,.22-.85.5.5,0,0,0-.55-.55c-.83,0-1.82,1.16-2.31,1.73a16.34,16.34,0,0,0-2.42,4.31c-.13.46-.14.54-.64.54-.16,0-.49.08-.49-.19a1.53,1.53,0,0,1,.09-.36l1.4-4.57a3.25,3.25,0,0,0,.19-.86c0-.21-.08-.38-.31-.38-.41,0-1.27,1.05-1.46,1.38,0,.08-.08.17-.17.17a.11.11,0,0,1-.13-.11,3.87,3.87,0,0,1,.67-1c.39-.47,1.21-1.26,1.87-1.26.49,0,.64.31.64.77A5.16,5.16,0,0,1,143,63l-.68,2.15,0,0c.86-1.57,2.7-4.34,4.73-4.34a.89.89,0,0,1,1,.88,3.67,3.67,0,0,1-.3,1.15Z"/><path class="b" d="M150.61,65.38v.36a1.61,1.61,0,0,0,1.67,1.81,3.4,3.4,0,0,0,2.47-1.43c0-.06.09-.12.17-.12s.11,0,.11.11-.33.52-.41.61a4.2,4.2,0,0,1-3,1.53,2.28,2.28,0,0,1-2.26-2.47,5.24,5.24,0,0,1,4.81-4.92A1.65,1.65,0,0,1,156,62.34c0,2.28-3.49,2.58-5.17,2.77l-.2,0Zm3.77-1.87a2.49,2.49,0,0,0,.53-1.46.83.83,0,0,0-.93-.89c-1.74,0-2.92,2.2-3.28,3.67C151.85,64.73,153.66,64.45,154.38,63.51Z"/><path class="b" d="M158.34,62.91a3.74,3.74,0,0,0,.19-.91c0-.14,0-.33-.2-.33-.36,0-1,.78-1.16,1.05l-.14.2c0,.06-.14.24-.24.24a.11.11,0,0,1-.11-.11c0-.25.64-1,.8-1.18.33-.38,1.05-1,1.57-1s.58.58.58.93a3.48,3.48,0,0,1-.22,1.07l-.68,2.22c.58-1,2.12-4.21,3.47-4.21a.73.73,0,0,1,.79.79c0,.43-.25.93-.72.93-.79,0-.35-.77-.77-.77s-1.38,1.42-1.56,1.7a20.77,20.77,0,0,0-1.9,3.85c-.17.58-.13.71-.75.71-.14,0-.44,0-.44-.21a3.6,3.6,0,0,1,.11-.44Z"/><path class="b" d="M84.68,15.61l-.06-4.31c0-1.69-.18-1.69-.74-1.72s-.63,0-.63-.22.25-.2.35-.2l1.12.06,1.5-.06c.07,0,.25,0,.25.21s-.14.21-.55.24-.73.08-.71.85l0,7.32c0,.14,0,.41-.21.41s-.21,0-.45-.32l-6-7.42,0,0,.06,4.82c0,2,.18,2.17.81,2.23s.63,0,.63.22-.22.2-.34.2-.7-.06-1.13-.06c-.71,0-1.34.06-1.6.06,0,0-.24,0-.24-.18s.06-.18.64-.25.67-.14.67-2V10.79c0-1.08-.1-1.22-.73-1.22-.29,0-.52,0-.52-.22s.18-.2.43-.2.78.06,1.23.06.73-.06.91-.06.38.29.48.42l4.75,6.06Z"/><path class="b" d="M94.63,18a4.64,4.64,0,0,1-4.79-4.49,4.58,4.58,0,0,1,4.83-4.45,4.53,4.53,0,0,1,4.73,4.33A4.75,4.75,0,0,1,94.63,18Zm-.13-8.58c-2,0-3,1.81-3,3.79,0,2.27,1.33,4.42,3.22,4.42s3-2.17,3-4.2C97.73,11.79,96.73,9.43,94.51,9.43Z"/><path class="b" d="M104.14,10.57c0-.57,0-1-.69-1-.31,0-.5,0-.5-.22s.06-.2.52-.2l1,.06,2.66-.06c2.48,0,2.69,1.71,2.69,2.2a2.1,2.1,0,0,1-1.92,2.07c.18.11.35.2.67.78l1.36,2.41c.28.49.48.84.87.9s.57.07.57.25-.14.17-.24.17l-1.3-.06-.76.06c-.25,0-.31-.13-.46-.42l-1.69-3.19c-.31-.6-.38-.66-1-.66-.24,0-.27.08-.27.32V16.5c0,.59,0,1,.7,1,.31,0,.5,0,.5.24s-.18.18-.29.18l-1.68-.06-1.62.06c-.11,0-.29,0-.29-.2s.21-.21.5-.22c.69-.06.69-.42.69-1Zm1.5,2.21c0,.49,0,.52.7.52a1.62,1.62,0,0,0,1.89-1.75,1.86,1.86,0,0,0-1.93-2c-.64,0-.66.34-.66.88Z"/><path class="b" d="M116.88,18a4.4,4.4,0,0,1-2.23-.56c-.15-.11-.17-.31-.17-.66,0-.06,0-.76,0-1.26,0-.06,0-.25.18-.25s.17.11.2.24a2.49,2.49,0,0,0,2.21,2.13,1.62,1.62,0,0,0,1.67-1.55c0-1.09-1-1.62-2-2.09s-2.24-1.05-2.24-2.53a2.47,2.47,0,0,1,2.76-2.41,5.41,5.41,0,0,1,1.83.32c.17.1.17.22.17,1.46,0,.31,0,.42-.2.42s-.2-.08-.34-.52a1.53,1.53,0,0,0-1.58-1.34,1.37,1.37,0,0,0-1.53,1.34c0,1,.81,1.34,1.93,1.81.78.34,2.25,1,2.25,2.6A2.83,2.83,0,0,1,116.88,18Z"/><path class="b" d="M131.19,16.49c.8.84,1,1,1.33,1s.46,0,.46.21-.14.2-.53.2-.43-.06-1.47-.06c-1.43,0-1.76.06-2,.06s-.32,0-.32-.2a.22.22,0,0,1,.2-.21l.42,0c.15,0,.36-.1.36-.25s-.06-.2-.28-.45L126.81,14c-.1-.11-.29-.32-.38-.32s-.17.18-.17.39v2.39c0,.59,0,1,.7,1,.29,0,.49,0,.49.24s-.18.2-.29.2l-1.67-.06-1.64.06c-.11,0-.29,0-.29-.21s.2-.21.49-.22c.71-.06.71-.42.71-1V10.58c0-.57,0-1-.71-1-.29,0-.49,0-.49-.24s.06-.2.52-.2c.88.06,1.22.06,1.44.06l1.64-.06c.11,0,.29,0,.29.2s-.2.21-.49.24c-.7,0-.7.41-.7,1V13c0,.08,0,.14.07.14.21,0,3.42-2.86,3.42-3.28,0-.25-.24-.25-.56-.25s-.52-.06-.52-.22.22-.21.36-.21l1.4.06,1.69-.06c.18,0,.27.1.27.2s-.22.22-.6.22-.66,0-2.2,1.37L128,12.39c-.24.21-.27.22-.27.29s0,.1.18.27Z"/></svg>