<svg xmlns="http://www.w3.org/2000/svg" viewBox="0 0 118.13 98.3"><defs><style>.a,.b{fill:#fff;}.a,.e{fill-rule:evenodd;}.c{fill:none;}.d,.e{fill:#444;}</style></defs><title>Artboard 1</title><polygon class="a" points="16.77 58.91 1.77 65.06 5.37 75.85 12.72 86.35 16.77 88.14 24.26 83.5 29.21 88.14 35.96 91.89 45.25 95.49 54.4 85.75 16.77 58.91"/><polygon class="a" points="100.88 59.51 112.72 63.56 117.07 65.51 113.62 73.45 107.02 84.25 102.22 88.44 93.68 83.8 89.93 86.65 85.73 89.64 78.84 93.84 74.04 95.34 67.74 80.05 100.88 59.51"/><ellipse class="b" cx="59.27" cy="48.72" rx="45.65" ry="47.98"/><rect class="c" width="118.13" height="98.3"/><path class="b" d="M29.11,82.92l2.54-3.61c.51-.72,1.09-1.5,1.8-2.39l0,0c-1,.67-1.89,1.26-3,1.89l-3.47,2-2.41-2.36,1.69-3.19a26,26,0,0,1,2.09-3.35l0,0c-1,.84-1.78,1.46-2.57,2.07l-3.22,2.51L20,73.95l10.69-7.81L33.56,69l-2.19,4.19a29,29,0,0,1-1.58,2.6l0,0a21.7,21.7,0,0,1,2.65-1.63L36.6,72l2.82,2.76L31.81,85.56Z"/><polygon class="b" points="37.57 88.56 42.93 76.64 49.9 79.77 48.65 82.56 44.96 80.9 44.2 82.58 47.7 84.15 46.49 86.83 43 85.26 42.13 87.19 45.83 88.84 44.55 91.69 37.57 88.56"/><path class="b" d="M53.8,94.05a12.47,12.47,0,0,1-2.65-.54l.52-3.25a9.18,9.18,0,0,0,2.72.75c.87.09,1.46-.22,1.53-.82.19-1.88-4.77-1.27-4.32-5.71.27-2.58,2.41-4,5.84-3.68a15.57,15.57,0,0,1,2.34.45l-.51,3.08A8.6,8.6,0,0,0,57,83.74c-1-.1-1.46.26-1.51.76-.17,1.64,4.74,1.5,4.33,5.56-.27,2.6-2.56,4.35-6,4"/><polygon class="b" points="69.14 82.62 71.67 92.26 68.18 93.18 65.66 83.54 62.92 84.25 62.14 81.26 71.09 78.91 71.87 81.91 69.14 82.62"/><polygon class="b" points="80.39 88.75 73.45 77.69 79.92 73.62 81.55 76.21 78.12 78.36 79.1 79.92 82.34 77.88 83.91 80.37 80.66 82.41 81.79 84.19 85.21 82.05 86.87 84.68 80.39 88.75"/><path class="b" d="M96.07,75.81l-5.2-1.29-.09.1,3.59,3.14L92,80.47l-9.83-8.6c.74-1,1.78-2.19,2.87-3.42,2.19-2.51,4.3-3.13,6.49-1.22a3.74,3.74,0,0,1,1.13,4.15c.62.09,1.19.17,1.76.28l4.54.86Zm-8.94-5.27a5.69,5.69,0,0,0-.42.54l2.11,1.85a5,5,0,0,0,.42-.43,1.46,1.46,0,0,0,0-2.23c-.58-.51-1.31-.61-2.09.28"/><path class="a" d="M96.63,59.48l.3-.92,18.64,7.24a59.66,59.66,0,0,1-10.6,19c2.78-7.21,3-17.68,2.8-20.81ZM94,84.57l8.34,6.22a62.58,62.58,0,0,0,15.78-26.54L104.25,59.1a46.83,46.83,0,1,0-90.37,0L0,64.24A62.58,62.58,0,0,0,15.79,90.79l8.33-6.22a51.32,51.32,0,0,0,69.89,0m-71.08-64a44.66,44.66,0,0,1,79.3,37.71l-4.71-1.84c.1-.43.21-.86.3-1.29l-6.58-4.24a32.09,32.09,0,0,0,.24-5.29L98.42,42a39,39,0,0,0-2.24-9.14H88.36a32.08,32.08,0,0,0-4.49-7l3.23-7.12a38.57,38.57,0,0,0-3.52-3.13A39.74,39.74,0,0,0,79.71,13L73.54,17.8a32.18,32.18,0,0,0-7.9-2.75L63.77,7.46a39.66,39.66,0,0,0-9.41,0L52.5,15.05a32.17,32.17,0,0,0-7.9,2.75L38.43,13a39.27,39.27,0,0,0-3.87,2.68A38.63,38.63,0,0,0,31,18.79l3.23,7.12a32.08,32.08,0,0,0-4.49,7H21.94a40.15,40.15,0,0,0-1.39,4.5A39.66,39.66,0,0,0,19.71,42l6.93,3.62a31.62,31.62,0,0,0,.25,5.29l-6.58,4.24c.1.43.19.86.3,1.29l-4.72,1.84a44.54,44.54,0,0,1,7-37.71M59.07,79.15a32.41,32.41,0,0,0,30-20.31L104.91,65a49.31,49.31,0,0,1-91.69,0l15.84-6.17a32.4,32.4,0,0,0,30,20.31M21.5,59.48l-.3-.92L2.56,65.8a59.57,59.57,0,0,0,10.6,19c-2.78-7.21-3-17.68-2.8-20.81Zm37.57-40.8A28.14,28.14,0,1,1,30.92,46.82,28.2,28.2,0,0,1,59.07,18.68"/><polygon class="a" points="65.47 29.57 60.11 25.99 56.48 25.99 56.48 26.31 56.48 26.7 56.09 26.7 52.66 26.7 52.66 32.03 56.8 32.03 57.19 32.03 57.19 32.43 57.19 50.93 61.05 50.93 61.05 32.43 61.05 32.03 61.44 32.03 65.47 32.03 65.47 29.57"/><polygon class="a" points="79.57 42.46 74.21 38.89 70.58 38.89 70.58 39.2 70.58 39.6 70.18 39.6 66.75 39.6 66.75 44.93 70.89 44.93 71.29 44.93 71.29 45.32 71.29 63.82 75.14 63.82 75.14 45.32 75.14 44.93 75.54 44.93 79.57 44.93 79.57 42.46"/><polygon class="a" points="51.38 42.46 46.02 38.89 42.38 38.89 42.38 39.2 42.38 39.6 41.99 39.6 38.56 39.6 38.56 44.93 42.7 44.93 43.09 44.93 43.09 45.32 43.09 63.82 46.95 63.82 46.95 45.32 46.95 44.93 47.35 44.93 51.38 44.93 51.38 42.46"/><rect class="c" width="118.13" height="98.3"/><path class="d" d="M29.11,82.92l2.54-3.61c.51-.72,1.09-1.5,1.8-2.39l0,0c-1,.67-1.89,1.26-3,1.89l-3.47,2-2.41-2.36,1.69-3.19a26,26,0,0,1,2.09-3.35l0,0c-1,.84-1.78,1.46-2.57,2.07l-3.22,2.51L20,73.95l10.69-7.81L33.56,69l-2.19,4.19a27.92,27.92,0,0,1-1.57,2.6l0,0a21.7,21.7,0,0,1,2.65-1.63L36.6,72l2.82,2.76L31.81,85.56Z"/><polygon class="d" points="37.57 88.56 42.93 76.64 49.9 79.77 48.65 82.56 44.96 80.9 44.2 82.58 47.7 84.15 46.49 86.83 43 85.26 42.13 87.19 45.83 88.84 44.55 91.69 37.57 88.56"/><path class="d" d="M53.8,94.05a12.56,12.56,0,0,1-2.65-.54l.53-3.25a9.18,9.18,0,0,0,2.72.75c.87.08,1.46-.22,1.53-.82.19-1.88-4.77-1.27-4.32-5.71.26-2.58,2.41-4,5.84-3.68a15.57,15.57,0,0,1,2.35.45l-.51,3.08A8.64,8.64,0,0,0,57,83.74c-1-.1-1.46.26-1.52.76-.17,1.64,4.75,1.5,4.33,5.56-.27,2.6-2.57,4.35-6,4"/><polygon class="d" points="69.14 82.62 71.67 92.26 68.18 93.18 65.66 83.54 62.92 84.25 62.14 81.26 71.09 78.91 71.87 81.91 69.14 82.62"/><polygon class="d" points="80.39 88.75 73.45 77.69 79.92 73.62 81.55 76.21 78.12 78.36 79.1 79.92 82.34 77.88 83.91 80.37 80.66 82.41 81.79 84.19 85.21 82.04 86.87 84.68 80.39 88.75"/><path class="d" d="M96.07,75.81l-5.2-1.29-.09.1,3.59,3.13L92,80.47l-9.83-8.6c.74-1,1.78-2.19,2.87-3.43,2.19-2.5,4.3-3.12,6.49-1.21a3.74,3.74,0,0,1,1.13,4.15c.62.09,1.19.17,1.76.28l4.54.86Zm-8.94-5.27a6.63,6.63,0,0,0-.42.54l2.11,1.85a5,5,0,0,0,.42-.43,1.46,1.46,0,0,0,0-2.23c-.58-.51-1.31-.61-2.09.28"/><path class="e" d="M96.63,59.48l.3-.92,18.64,7.24a59.66,59.66,0,0,1-10.6,19c2.78-7.21,3-17.68,2.8-20.81ZM94,84.57l8.34,6.22a62.58,62.58,0,0,0,15.78-26.54L104.25,59.1a46.83,46.83,0,1,0-90.37,0L0,64.24A62.53,62.53,0,0,0,15.79,90.79l8.33-6.22a51.32,51.32,0,0,0,69.89,0m-71.08-64a44.66,44.66,0,0,1,79.3,37.71l-4.71-1.84c.1-.43.21-.86.3-1.29l-6.58-4.24a32.09,32.09,0,0,0,.24-5.29L98.42,42a39,39,0,0,0-2.24-9.14H88.36a32.08,32.08,0,0,0-4.49-7l3.23-7.12a38.19,38.19,0,0,0-3.52-3.13A39.35,39.35,0,0,0,79.71,13L73.54,17.8a32.18,32.18,0,0,0-7.9-2.75L63.77,7.46a39.66,39.66,0,0,0-9.41,0L52.5,15.05a32.17,32.17,0,0,0-7.9,2.75L38.43,13a38.89,38.89,0,0,0-3.87,2.68A38.24,38.24,0,0,0,31,18.79l3.23,7.12a32.25,32.25,0,0,0-4.49,7H21.94a40.15,40.15,0,0,0-1.39,4.5A39.66,39.66,0,0,0,19.71,42l6.93,3.62a31.62,31.62,0,0,0,.25,5.29l-6.58,4.24c.1.43.19.86.3,1.29l-4.72,1.84a44.54,44.54,0,0,1,7-37.71M59.07,79.15a32.41,32.41,0,0,0,30-20.31L104.91,65a49.31,49.31,0,0,1-91.69,0l15.84-6.17a32.4,32.4,0,0,0,30,20.31M21.5,59.48l-.3-.92L2.56,65.8a59.57,59.57,0,0,0,10.6,19c-2.78-7.21-3-17.68-2.8-20.81Zm37.57-40.8A28.14,28.14,0,1,1,30.92,46.82,28.2,28.2,0,0,1,59.07,18.68"/><polygon class="e" points="65.47 29.57 60.11 25.99 56.48 25.99 56.48 26.31 56.48 26.7 56.09 26.7 52.66 26.7 52.66 32.03 56.8 32.03 57.19 32.03 57.19 32.43 57.19 50.93 61.05 50.93 61.05 32.43 61.05 32.03 61.44 32.03 65.47 32.03 65.47 29.57"/><polygon class="e" points="79.57 42.46 74.21 38.89 70.58 38.89 70.58 39.2 70.58 39.6 70.18 39.6 66.75 39.6 66.75 44.93 70.89 44.93 71.29 44.93 71.29 45.32 71.29 63.82 75.14 63.82 75.14 45.32 75.14 44.93 75.54 44.93 79.57 44.93 79.57 42.46"/><polygon class="e" points="51.38 42.46 46.02 38.89 42.38 38.89 42.38 39.2 42.38 39.6 41.99 39.6 38.56 39.6 38.56 44.93 42.7 44.93 43.09 44.93 43.09 45.32 43.09 63.82 46.95 63.82 46.95 45.32 46.95 44.93 47.35 44.93 51.38 44.93 51.38 42.46"/></svg>