<svg xmlns="http://www.w3.org/2000/svg" viewBox="0 0 342.53 317.11"><defs><style>.a{fill:#444;}</style></defs><title>Artboard 2</title><path class="a" d="M241.71,2.44,245.46,0l2.6,4L244.3,6.44Zm4.15,6.4,3.76-2.44,10.24,15.76L256.1,24.6ZM233.3,17,237,14.62l1.7,2.62.06,0A7.69,7.69,0,0,1,242,10.93a6.9,6.9,0,0,1,1.32-.73l2.24,3.45a8.52,8.52,0,0,0-1.48.83c-2.83,1.84-3.9,4.85-2,7.77l5.24,8.07-3.75,2.44Zm-1.54,18.11-5.88-9-2.12,1.38-1.94-3,2.12-1.38-3.1-4.77,3.75-2.44,3.1,4.77,3.42-2.22,1.94,3-3.41,2.22,5.3,8.16a1.55,1.55,0,0,0,2.46.55,12,12,0,0,0,1.84-1.41l2.08,3.2a16.61,16.61,0,0,1-2.57,2.11c-2.43,1.58-5.16,1.69-7-1.11M214.94,47.48l1.34-3.72A6.41,6.41,0,0,0,222,43c1.54-1,2.77-2.54,1.85-4-.8-1.23-1.81-1-4.17,0l-2.3,1c-2.88,1.22-5.43,1.07-7-1.3-2.14-3.29-.46-7.05,2.89-9.23,2.83-1.84,5.33-2.45,7.87-1.43l-1.51,3.61a5,5,0,0,0-4.51.74c-1.48,1-2.19,2.21-1.42,3.41s2.17.38,4-.37l2.67-1.08c3-1.22,5.54-.71,7.08,1.66,2.36,3.63-.25,7.77-3.48,9.87-2.83,1.84-6,2.82-9,1.53m-18.32,7.65-6.53-10.07,3.75-2.44,5.94,9.14c1.54,2.37,3.41,3,5.31,1.71,2.06-1.34,2.39-3.39.65-6.07L200,38.61l3.76-2.44L214,51.93l-3.63,2.36-1.26-1.94-.09.06a6.27,6.27,0,0,1-3,5.13c-3.54,2.3-7,1.32-9.44-2.4M189,59.71l-2.52-3.88c-1.24-1.91-3.52-2-5.46-.79-1.57,1-2.75,3-1.27,5.25l2.54,3.91c1.24,1.91,3.44,2.06,5.37.8,1.57-1,2.81-3,1.34-5.29m-10.51,7L176,62.89c-2.78-4.28-1.17-8.34,2.34-10.62a6.07,6.07,0,0,1,5.26-.66l.09-.06-5.08-7.82,3.75-2.44L196.6,63.24l-3.66,2.38-1.14-1.75,0,0a7.49,7.49,0,0,1-3.05,5c-3.45,2.24-7.64,1.85-10.26-2.18m-23.12.92L159,65.25l1.26,1.94.06,0a6.32,6.32,0,0,1,3-5.14c3.54-2.3,7-1.36,9.39,2.39l6.55,10.1-3.75,2.44-5.94-9.14c-1.54-2.37-3.37-3-5.28-1.73-2.06,1.34-2.44,3.38-.7,6.06L169.32,81l-3.76,2.44Zm-11.82-1.42,3.76-2.44,2.6,4-3.75,2.44Zm4.16,6.4,3.76-2.44,10.23,15.76-3.75,2.44ZM146.35,86.9l-2.28-3.51c-1.24-1.91-3.44-2.06-5.38-.8-1.57,1-2.75,3-1.28,5.25l2.26,3.48c1.24,1.91,3.46,2.09,5.4.83,1.57-1,2.75-3,1.27-5.25m-4.72,15.24,2.75-3.58a4,4,0,0,0,4.51,0c2.28-1.48,2.6-3.74,1.16-6L149,90.93A6.07,6.07,0,0,1,146,95.77c-3.82,2.48-7.65,1.9-10.27-2.13l-2-3C131,86.35,132.2,82.22,135.68,80a6.47,6.47,0,0,1,5.76-.63l-1.22-1.88,3.63-2.36,9.38,14.44c2.38,3.66,2.73,8.73-2.71,12.27-2.56,1.66-6.4,2.41-8.88.34M117.75,92l3.66-2.38,1.7,2.62.06,0A7.68,7.68,0,0,1,126.41,86a7,7,0,0,1,1.32-.73L130,88.7a8.55,8.55,0,0,0-1.48.83c-2.83,1.84-3.9,4.85-2,7.78l5.24,8.06L128,107.8Zm-2.68,10.76-.28-.43a3.37,3.37,0,0,0-5-1,3.65,3.65,0,0,0-1.23,5.39l.14.22Zm-8.1,10-2-3.08c-2.88-4.43-1.15-9.05,2.76-11.59,3.42-2.22,8.1-2.42,10.82,1.77l2,3-10.13,6.58.56.86c1.3,2,3.69,2.11,5.69.81a5.29,5.29,0,0,0,2.1-4.25l4-.21c.37,3.26-1.44,5.93-4.22,7.73-3.88,2.52-8.74,2.65-11.53-1.66M100.87,117l-2.54-3.91c-1.24-1.91-3.44-2.05-5.37-.8a3.88,3.88,0,0,0-1.18,5.54l2.36,3.63c1.24,1.91,3.52,2,5.46.79,1.57-1,2.76-3,1.28-5.25m-4,8.78-.09.06,1,1.57-3.6,2.34L79.93,107.8l3.75-2.44,5.2,8,0,0a6.43,6.43,0,0,1,3-4.94c3.45-2.24,7.64-1.85,10.25,2.18l2.48,3.82c2.78,4.28,1,8.44-2.49,10.72a6.07,6.07,0,0,1-5.26.66m-34.72-6.42,5.08-3.3,7.86,12.1.9-9.6,5.36-3.48-1,9,11.59,7.13-5.54,3.6L78.66,130l-.39,3.1,3.2,4.92-5.08,3.3Zm-4.64,31.2.67-4.77a8.27,8.27,0,0,0,5.91-1.08c1.17-.76,2.29-1.93,1.62-3s-1.52-.72-3-.13c-.11,0-.18.12-3.28,1.21s-5.43.81-7-1.62c-2.08-3.2-.8-7.36,3.2-10,3.11-2,5.3-2.56,8.11-2.2l-1.08,4.68a6.73,6.73,0,0,0-4.64,1c-1.35.88-1.9,1.8-1.31,2.69s1.83.26,3.08-.25L63,135.93c3.29-1.27,6-.59,7.46,1.72,2.56,3.94-.35,8.28-3.77,10.5-2.92,1.9-5.71,3-9.16,2.41m-21.66-5.93,5-3.24,1.74,2.68,0,0a7.22,7.22,0,0,1,3-6.15,8.47,8.47,0,0,1,1.7-.89l2.84,4.37a19.1,19.1,0,0,0-2.28,1.21c-2.12,1.38-3.73,3.69-1.91,6.49l5.48,8.43-5.08,3.3Zm-1.15,15.15-2.6-4a3.1,3.1,0,1,0-5.14,3.47l2.58,4a2.86,2.86,0,0,0,4.29.8,2.84,2.84,0,0,0,.88-4.24M24.3,166.43,22,162.92c-3-4.68-.57-9.44,3.19-11.87,3.91-2.54,9.2-3,12.24,1.73l2.18,3.36c3.06,4.71.32,9.38-3.32,11.74-3.88,2.52-9,3.24-12-1.44M0,167.89l5-3.24,1.32,2,.06,0a6.87,6.87,0,0,1,3.36-5.55c2.89-1.88,6.45-1.73,8.78,1.87l7.28,11.21-5.08,3.3L14.57,168c-1.08-1.66-2.6-2.65-4.47-1.43-1.51,1-1.9,2.81-.44,5.06l5.94,9.14-5.08,3.3ZM205.29,79.28l-184,120.15V317.11L216.54,189.77l126,121.5V193.13L217.11,71.36Z"/></svg>